<svg width="148" height="148" viewBox="0 0 148 148" fill="none" xmlns="http://www.w3.org/2000/svg">
<path d="M75.0255 61.4824C55.9138 42.3732 34.9578 32.3451 28.2165 39.0839C27.4768 39.8588 26.9325 40.7985 26.6286 41.8258L26.5201 41.7173L20.0822 68.1003L13.6713 94.4045L6.07204 125.551L1.26144 145.277L29.7428 134.499L65.969 120.792L94.8695 109.857L94.835 109.823C95.8025 109.514 96.6877 108.991 97.424 108.291C104.165 101.55 94.1372 80.5941 75.0255 61.4824Z" fill="#DD1C4B"/>
<path d="M75.0253 61.4747C55.9143 42.3637 34.9577 32.3354 28.2173 39.0757C21.4769 45.8161 31.5053 66.7728 50.6163 85.8837C69.7273 104.995 90.6839 115.023 97.4243 108.283C104.165 101.542 94.1363 80.5857 75.0253 61.4747Z" fill="#D1E3EE"/>
<path d="M92.246 110.71C88.7952 110.771 85.3716 110.091 82.2057 108.718L58.5842 117.656L22.3457 131.351L2.91347 138.703L1.26144 145.477L29.7428 134.699L65.969 120.992L92.4926 110.957L92.246 110.71Z" fill="#B21D48"/>
<path d="M122.081 91.2311C121.785 91.2302 121.493 91.1775 121.215 91.0758C108.698 86.3863 95.167 85.0715 81.981 87.2638L73.1735 88.7309C71.8254 88.9232 70.5765 87.9863 70.3842 86.6381C70.1983 85.3356 71.0678 84.1166 72.3598 83.8685L81.1698 82.3891C95.2101 80.0562 109.617 81.4552 122.946 86.4452C124.228 86.9057 124.893 88.3179 124.433 89.5994C124.077 90.5894 123.133 91.2447 122.081 91.2311Z" fill="#FFBF41"/>
<path d="M77.6982 76.4369C76.3365 76.4289 75.239 75.3184 75.247 73.9567C75.2525 73.0166 75.7919 72.1617 76.6379 71.752L128.418 47.095C129.648 46.5094 131.119 47.0315 131.705 48.2613C132.29 49.491 131.768 50.9624 130.538 51.548L78.7584 76.2051C78.4268 76.3601 78.0647 76.4394 77.6982 76.4369Z" fill="#FFBF41"/>
<path d="M48.8643 71.5055C48.5391 71.5061 48.2171 71.4417 47.9175 71.3156C46.6606 70.7913 46.0667 69.3477 46.5909 68.0908V68.0905L50.1761 59.4876C55.6922 46.3069 56.9783 31.7383 53.8574 17.795C53.5374 16.4712 54.3514 15.1391 55.6749 14.8192C56.9987 14.4993 58.3308 15.3133 58.6507 16.6367C58.6578 16.666 58.6643 16.6953 58.6704 16.7249C62.0139 31.6612 60.6353 47.2673 54.7253 61.3862L51.1377 69.9891C50.7549 70.9066 49.8586 71.5046 48.8643 71.5055Z" fill="#FFBF41"/>
<path d="M134.41 101.094C137.133 101.094 139.341 98.8861 139.341 96.1625C139.341 93.439 137.133 91.2311 134.41 91.2311C131.686 91.2311 129.478 93.439 129.478 96.1625C129.478 98.8861 131.686 101.094 134.41 101.094Z" fill="#D5557E"/>
<path d="M75.2326 32.0542C77.9562 32.0542 80.164 29.8463 80.164 27.1228C80.164 24.3992 77.9562 22.1914 75.2326 22.1914C72.5091 22.1914 70.3012 24.3992 70.3012 27.1228C70.3012 29.8463 72.5091 32.0542 75.2326 32.0542Z" fill="#DD95C1"/>
<path d="M53.0413 9.86282C50.3176 9.86282 48.1099 7.65509 48.1099 4.93141C48.1099 2.20773 50.3176 0 53.0413 0C55.765 0 57.9727 2.20773 57.9727 4.93141C57.9727 7.65509 55.765 9.86282 53.0413 9.86282Z" fill="#7FCCCB"/>
<path d="M122.081 19.7256C120.72 19.7256 119.616 18.6216 119.616 17.2599V14.7942C119.616 13.4325 120.72 12.3285 122.081 12.3285C123.443 12.3285 124.547 13.4325 124.547 14.7942V17.2599C124.547 18.6216 123.443 19.7256 122.081 19.7256Z" fill="#2276BB"/>
<path d="M122.081 7.39712C120.72 7.39712 119.616 6.2931 119.616 4.93141V2.46571C119.616 1.10402 120.72 0 122.081 0C123.443 0 124.547 1.10402 124.547 2.46571V4.93141C124.547 6.2931 123.443 7.39712 122.081 7.39712Z" fill="#2276BB"/>
<path d="M129.479 12.3285H127.013C125.651 12.3285 124.547 11.2245 124.547 9.86282C124.547 8.50114 125.651 7.39712 127.013 7.39712H129.479C130.84 7.39712 131.944 8.50114 131.944 9.86282C131.944 11.2245 130.841 12.3285 129.479 12.3285Z" fill="#2276BB"/>
<path d="M117.15 12.3285H114.684C113.323 12.3285 112.219 11.2245 112.219 9.86282C112.219 8.50114 113.323 7.39712 114.684 7.39712H117.15C118.512 7.39712 119.616 8.50114 119.616 9.86282C119.616 11.2245 118.512 12.3285 117.15 12.3285Z" fill="#2276BB"/>
<path d="M20.8344 71.5055C20.5583 70.4502 20.3117 69.385 20.0824 68.3001L13.6715 94.6042L14.1647 100.618C15.2394 113.439 20.7472 125.486 29.7406 134.687L65.9692 120.992C65.7719 120.931 65.5673 120.886 65.37 120.82C43.4021 112.583 26.7977 94.1964 20.8344 71.5055Z" fill="white"/>
<path d="M65.969 120.992C65.7718 120.931 65.5671 120.886 65.3698 120.82C62.9966 119.921 60.6721 118.898 58.4067 117.755L25.7755 130.101C27.0127 131.705 28.3371 133.24 29.7429 134.699L65.969 120.992Z" fill="#F6F6E7"/>
<path d="M104.821 29.5367V41.917H92.4408V29.5367H104.821Z" fill="#C9DA53"/>
<path d="M60.4384 73.9712C59.0767 73.9709 57.973 72.8665 57.9733 71.5049C57.9736 70.8064 58.2698 70.141 58.7888 69.6735L83.4459 47.4821C84.4756 46.5911 86.0327 46.7036 86.9238 47.7333C87.7901 48.7344 87.7112 50.2409 86.745 51.1461L62.0879 73.3375C61.6355 73.7453 61.0477 73.9709 60.4384 73.9712Z" fill="#FFBF41"/>
<path d="M131.944 64.1084C130.582 64.1084 129.478 63.0043 129.478 61.6427V59.1769C129.478 57.8153 130.582 56.7112 131.944 56.7112C133.305 56.7112 134.409 57.8153 134.409 59.1769V61.6427C134.409 63.0043 133.306 64.1084 131.944 64.1084Z" fill="#FFDB43"/>
<path d="M140.662 60.4961C140.008 60.4979 139.38 60.2378 138.919 59.7736L137.176 58.0304C136.23 57.0509 136.257 55.4898 137.236 54.5439C138.192 53.6211 139.707 53.6211 140.662 54.5439L142.406 56.2871C143.369 57.2503 143.368 58.8114 142.405 59.7743C141.943 60.2363 141.316 60.4961 140.662 60.4961Z" fill="#FFDB43"/>
<path d="M144.272 51.7798H141.806C140.445 51.7798 139.341 50.6758 139.341 49.3141C139.341 47.9524 140.445 46.8484 141.806 46.8484H144.272C145.634 46.8484 146.738 47.9524 146.738 49.3141C146.738 50.6758 145.634 51.7798 144.272 51.7798Z" fill="#FFDB43"/>
<path d="M138.919 44.8068C137.557 44.8065 136.454 43.7025 136.454 42.3405C136.454 41.6868 136.714 41.0599 137.176 40.5979L138.919 38.8546C139.899 37.9084 141.459 37.9355 142.406 38.915C143.328 39.8705 143.328 41.3853 142.406 42.3411L140.662 44.0844C140.2 44.5467 139.573 44.8068 138.919 44.8068Z" fill="#FFDB43"/>
<path d="M131.944 41.917C130.582 41.917 129.478 40.813 129.478 39.4513V36.9856C129.478 35.6239 130.582 34.5199 131.944 34.5199C133.305 34.5199 134.409 35.6239 134.409 36.9856V39.4513C134.409 40.813 133.306 41.917 131.944 41.917Z" fill="#FFDB43"/>
<path d="M124.968 44.8068C124.314 44.8068 123.687 44.5467 123.225 44.0844L121.482 42.3411C120.536 41.3616 120.563 39.8005 121.542 38.8546C122.498 37.9318 124.012 37.9318 124.968 38.8546L126.711 40.5978C127.674 41.561 127.674 43.1221 126.711 44.085C126.249 44.547 125.622 44.8068 124.968 44.8068Z" fill="#FFDB43"/>
<path d="M13.59 2.46571L17.3995 10.1858L25.9185 11.4236L19.7542 17.4325L21.209 25.917L13.59 21.9103L5.97094 25.917L7.42571 17.4325L1.26144 11.4236L9.78046 10.1858L13.59 2.46571Z" fill="#FFDB43"/>
<path d="M145.959 133.557C144.786 129.401 142.086 125.842 138.399 123.594L137.383 122.07C131.687 113.552 122.73 107.76 112.625 106.06C111.277 105.868 110.028 106.805 109.836 108.153C109.65 109.455 110.52 110.674 111.812 110.922C119.1 112.159 125.742 115.862 130.627 121.411C126.52 122.15 122.928 124.617 120.765 128.185C118.109 132.941 119.812 138.949 124.568 141.604C129.324 144.26 135.332 142.557 137.987 137.801C139.002 135.843 139.55 133.676 139.588 131.471C142.211 135.282 142.421 140.258 140.128 144.276C139.433 145.447 139.819 146.96 140.99 147.654C142.162 148.349 143.674 147.963 144.369 146.792C144.391 146.754 144.412 146.716 144.433 146.677C146.673 142.683 147.222 137.959 145.959 133.557ZM133.687 135.394C132.371 137.779 129.371 138.645 126.987 137.329C124.602 136.013 123.736 133.013 125.052 130.629C125.06 130.616 125.067 130.602 125.075 130.589C126.53 128.206 128.984 126.609 131.752 126.244C132.18 126.232 132.605 126.331 132.985 126.53C135.066 127.692 135.177 132.726 133.687 135.394Z" fill="#2BB3CE"/>
</svg>
