<svg width="7" height="6" viewBox="0 0 7 6" fill="none" xmlns="http://www.w3.org/2000/svg">
<path d="M0.23291 1.37407L3.33046 5.13141C3.41851 5.23876 3.58255 5.23876 3.67181 5.13141L6.76936 1.37407C6.88757 1.23053 6.78625 1.01221 6.59928 1.01221H0.402985C0.216023 1.01221 0.113495 1.22932 0.23291 1.37407Z" fill="white"/>
<path d="M0.104618 1.50185C0.183022 1.59714 0.261425 1.69243 0.341035 1.78772C0.537647 2.02655 0.735466 2.26538 0.932078 2.50421C1.18538 2.81179 1.43869 3.11817 1.69199 3.42576C1.94288 3.72972 2.19257 4.03368 2.44346 4.33644C2.63163 4.56442 2.8198 4.79239 3.00796 5.02157C3.1129 5.14943 3.21905 5.32192 3.38551 5.37378C3.54955 5.42444 3.71722 5.3569 3.82216 5.23024C3.86558 5.17717 3.909 5.1253 3.95243 5.07223C4.12974 4.85632 4.30826 4.64041 4.48557 4.4257C4.73164 4.12656 4.97891 3.82742 5.22498 3.52828C5.48069 3.21829 5.73641 2.90708 5.99213 2.59709C6.19839 2.3474 6.40465 2.09772 6.61091 1.84683C6.705 1.73224 6.80029 1.62006 6.89316 1.50426C6.95951 1.42224 7.00414 1.32936 6.99931 1.22201C6.99207 1.0459 6.87025 0.885478 6.69776 0.84326C6.64227 0.829992 6.5892 0.831198 6.53251 0.831198C6.35158 0.831198 6.17064 0.831198 5.98851 0.831198C5.67369 0.831198 5.35887 0.831198 5.04405 0.831198C4.65323 0.831198 4.26242 0.831198 3.87282 0.831198C3.46512 0.831198 3.05621 0.831198 2.64851 0.831198C2.27941 0.831198 1.91031 0.831198 1.54121 0.831198C1.27344 0.831198 1.00445 0.831198 0.736672 0.831198C0.625701 0.831198 0.514729 0.827579 0.403758 0.831198C0.265044 0.834817 0.145629 0.898746 0.0672256 1.01334C-0.0232401 1.14481 -0.0220338 1.33781 0.0768754 1.46566C0.13598 1.54286 0.232476 1.58387 0.324148 1.5308C0.400139 1.48617 0.449594 1.36072 0.389284 1.28353C0.38084 1.27146 0.373603 1.25699 0.363953 1.24613C0.366366 1.24855 0.37119 1.27508 0.367572 1.25699C0.366366 1.25096 0.363953 1.24372 0.361541 1.23648C0.353097 1.20874 0.356716 1.2594 0.362747 1.23045C0.363953 1.22563 0.367572 1.20392 0.362747 1.22804C0.35551 1.25578 0.365159 1.22201 0.366366 1.2196C0.377221 1.20392 0.361541 1.22925 0.360335 1.23166C0.363953 1.22563 0.366366 1.2196 0.369984 1.21357C0.373603 1.20754 0.377221 1.20271 0.38084 1.19668C0.377221 1.20271 0.37119 1.2208 0.373603 1.20754C0.374809 1.20392 0.385665 1.19668 0.388077 1.19306C0.383253 1.19789 0.372397 1.21357 0.378428 1.2015C0.38084 1.19789 0.392902 1.19427 0.396521 1.19186C0.385665 1.19909 0.372397 1.2015 0.392902 1.19547C0.423057 1.18582 0.369984 1.19306 0.403758 1.19427C0.404964 1.19427 0.404964 1.19427 0.406171 1.19427C0.409789 1.19427 0.414614 1.19427 0.418233 1.19427C0.464069 1.19427 0.511111 1.19427 0.556947 1.19427C0.770446 1.19427 0.985151 1.19427 1.19865 1.19427C1.52674 1.19427 1.85483 1.19427 2.18292 1.19427C2.57373 1.19427 2.96454 1.19427 3.35535 1.19427C3.7534 1.19427 4.15024 1.19427 4.54829 1.19427C4.89689 1.19427 5.24669 1.19427 5.59528 1.19427C5.84135 1.19427 6.08742 1.19427 6.33348 1.19427C6.39983 1.19427 6.46737 1.19427 6.53371 1.19427C6.5506 1.19427 6.56749 1.19427 6.58317 1.19427C6.58679 1.19427 6.59041 1.19427 6.59523 1.19427C6.59644 1.19427 6.59644 1.19427 6.59764 1.19427C6.60247 1.19427 6.6085 1.19547 6.61332 1.19427C6.57231 1.19547 6.63142 1.20271 6.61332 1.19547C6.58558 1.18462 6.64589 1.21719 6.62056 1.19909C6.59523 1.181 6.6471 1.22804 6.62659 1.20392C6.61091 1.18582 6.63383 1.2196 6.63745 1.22442C6.6483 1.2389 6.63262 1.21598 6.63262 1.21236C6.63383 1.2196 6.63624 1.23166 6.63986 1.23769C6.63986 1.23769 6.63624 1.2015 6.63745 1.22322C6.63745 1.22925 6.63624 1.23769 6.63745 1.24372C6.63624 1.2401 6.6471 1.21115 6.63986 1.22925C6.63745 1.23528 6.63624 1.24372 6.63504 1.24975C6.63383 1.25458 6.62418 1.27267 6.63383 1.25458C6.64469 1.23407 6.63021 1.25578 6.63021 1.2582C6.63021 1.26543 6.60609 1.28353 6.63142 1.2582C6.69776 1.19306 6.64348 1.24372 6.64107 1.24613C6.63383 1.25217 6.629 1.26181 6.62297 1.26905C6.58317 1.3173 6.54216 1.36676 6.50235 1.415C6.33348 1.61885 6.16582 1.82391 5.99695 2.02776C5.75812 2.31725 5.51929 2.60674 5.28046 2.89743C5.02836 3.20381 4.77506 3.51019 4.52296 3.81657C4.31308 4.07108 4.1032 4.32559 3.89332 4.5801C3.78235 4.71399 3.67259 4.84908 3.56161 4.98297C3.55558 4.99021 3.55076 4.99624 3.54473 5.00348C3.53749 5.01192 3.53025 5.01916 3.52181 5.0276C3.54231 5.0083 3.51819 5.02881 3.50613 5.03484C3.53387 5.02157 3.50492 5.03243 3.49165 5.03484C3.49407 5.03484 3.52302 5.03122 3.50251 5.03122C3.47477 5.03122 3.53267 5.03363 3.50492 5.03363C3.49769 5.03363 3.48924 5.03001 3.48321 5.0276C3.48562 5.0276 3.51095 5.03966 3.49045 5.03122C3.48321 5.0276 3.47718 5.02398 3.46994 5.01916C3.47356 5.02157 3.48924 5.03725 3.47597 5.02278C3.46994 5.01674 3.46391 5.01071 3.45909 5.00348C3.43496 4.97573 3.41204 4.94558 3.38792 4.91663C3.24318 4.74052 3.09722 4.56442 2.95248 4.38831C2.7245 4.11209 2.49653 3.83466 2.26856 3.55844C2.01405 3.24965 1.75954 2.94086 1.50503 2.63207C1.28067 2.35947 1.05632 2.08807 0.831962 1.81547C0.694454 1.6478 0.556947 1.48134 0.418233 1.31368C0.398933 1.29076 0.38084 1.26785 0.361541 1.24493C0.298818 1.16894 0.169754 1.181 0.105824 1.24493C0.0298333 1.31971 0.0418953 1.42586 0.104618 1.50185Z" fill="white"/>
</svg>
