<svg width="48" height="48" viewBox="0 0 48 48" fill="none" xmlns="http://www.w3.org/2000/svg">
<circle cx="24" cy="24" r="24" fill="currentColor" fill-opacity="0.1"/>
<path d="M34.0002 28.2217C34.0002 30.8566 31.8847 32.991 29.2498 33.0005H29.2403H19.8811C17.2556 33.0005 15.1118 30.8755 15.1118 28.2406V28.2312C15.1118 28.2312 15.1175 24.0512 15.125 21.9489C15.126 21.5541 15.5793 21.3331 15.8881 21.5787C18.1321 23.3589 22.1449 26.6049 22.195 26.6474C22.8655 27.1847 23.7155 27.4879 24.5843 27.4879C25.4532 27.4879 26.3032 27.1847 26.9737 26.637C27.0238 26.6039 30.9469 23.4552 33.2248 21.6457C33.5346 21.3992 33.9898 21.6202 33.9908 22.0141C34.0002 24.1003 34.0002 28.2217 34.0002 28.2217" fill="currentColor"/>
<path d="M33.5055 18.5259C32.6876 16.9846 31.0783 16.0005 29.3066 16.0005H19.8813C18.1095 16.0005 16.5002 16.9846 15.6824 18.5259C15.4992 18.8706 15.586 19.3003 15.8911 19.5439L22.9034 25.1529C23.3945 25.5495 23.9895 25.7469 24.5845 25.7469C24.5882 25.7469 24.5911 25.7469 24.5939 25.7469C24.5967 25.7469 24.6005 25.7469 24.6034 25.7469C25.1983 25.7469 25.7933 25.5495 26.2844 25.1529L33.2967 19.5439C33.6018 19.3003 33.6887 18.8706 33.5055 18.5259" fill="currentColor"/>
</svg>
