<svg width="48" height="48" viewBox="0 0 48 48" fill="none" xmlns="http://www.w3.org/2000/svg">
<circle cx="24" cy="24" r="24" fill="#211F26" fill-opacity="0.05"/>
<path d="M28.4384 25.7903C27.9176 25.6791 27.5056 25.9199 27.1408 26.1295C26.7672 26.3447 26.444 26.5319 26.0376 26.3839C23.952 25.5335 22.4632 24.0439 21.6152 21.9671C21.4656 21.5543 21.652 21.2303 21.8672 20.8551C22.0768 20.4919 22.3144 20.0783 22.2064 19.5583C22.108 19.0904 20.6088 17.2048 20.1624 16.768C19.868 16.4808 19.5664 16.3224 19.2576 16.296C18.0936 16.2472 16.6544 17.9248 16.4256 18.2936C15.8544 19.08 15.8584 20.1263 16.436 21.3951C17.8272 24.8031 23.1472 30.1239 26.5936 31.5567C27.2296 31.8527 27.8112 31.9999 28.3336 31.9999C28.8456 31.9999 29.2999 31.8583 29.6911 31.5767C29.9863 31.4087 31.7423 29.9183 31.6999 28.7319C31.6743 28.4295 31.5159 28.1271 31.2287 27.8343C30.7919 27.3871 28.9064 25.8879 28.4384 25.7903" fill="#211F26"/>
<path d="M28.0478 22.2311C28.103 22.5134 28.3486 22.7078 28.6254 22.7078C28.663 22.7078 28.7006 22.7038 28.739 22.6966C29.0582 22.6342 29.2662 22.3247 29.2038 22.0063C28.8854 20.3727 27.6238 19.1119 25.991 18.7935C25.6734 18.7383 25.363 18.9391 25.2998 19.2591C25.2382 19.5783 25.447 19.8879 25.7654 19.9495C26.9262 20.1759 27.8214 21.0711 28.0478 22.2311" fill="#211F26"/>
<path d="M25.9435 16.0046C25.6195 15.9638 25.3283 16.2014 25.2931 16.5246C25.2571 16.8486 25.4907 17.139 25.8131 17.175C28.4643 17.4694 30.5243 19.5261 30.8219 22.1781C30.8563 22.4781 31.1107 22.7005 31.4067 22.7005C31.4283 22.7005 31.4507 22.6989 31.4731 22.6965C31.7963 22.6605 32.0291 22.3693 31.9923 22.0461C31.6323 18.8445 29.1451 16.3598 25.9435 16.0046" fill="#211F26"/>
</svg>
